<svg version="1.1" id="Layer_1" xmlns="http://www.w3.org/2000/svg" xmlns:xlink="http://www.w3.org/1999/xlink" x="0px" y="0px"
	 width="100%" viewBox="0 0 1024 1024" enable-background="new 0 0 1024 1024" xml:space="preserve">
<path fill="#000000" opacity="1.000000" stroke="none" 
	d="
M484.106567,588.900635 
	C499.784027,608.146912 518.872742,622.843811 539.501343,635.631165 
	C564.145325,650.907593 589.728577,664.560364 615.008667,678.734436 
	C615.553833,679.039978 616.094543,679.538574 617.407837,678.613953 
	C613.858643,674.280518 610.457458,669.863770 606.780396,665.690063 
	C597.530212,655.190491 588.149170,644.806274 578.837891,634.360413 
	C577.508362,632.868896 576.197083,631.349243 575.012207,629.743164 
	C571.823364,625.420898 571.923279,620.416870 575.171448,617.517151 
	C578.492554,614.552368 584.091431,614.986633 587.754395,618.955505 
	C594.304932,626.053284 600.588318,633.396790 607.027466,640.598145 
	C620.352051,655.499878 633.677063,670.401245 646.040955,686.124512 
	C648.509460,689.263672 651.012878,692.389526 652.787415,696.014526 
	C655.928101,702.430542 654.411865,707.607300 648.349121,711.386292 
	C644.697876,713.662170 640.576538,714.428101 636.469666,714.899414 
	C618.220825,716.993652 599.916443,716.764771 581.620483,715.653259 
	C571.341248,715.028809 561.076782,714.147034 550.813721,713.285217 
	C548.679871,713.106079 546.482910,712.773376 544.487183,712.041809 
	C540.172058,710.459900 538.209473,707.070496 538.859802,702.599792 
	C539.499634,698.201416 542.582275,695.731323 546.866089,695.835693 
	C556.005798,696.058350 565.131226,696.808899 574.267883,697.226685 
	C587.645813,697.838379 601.028442,698.348083 614.409058,698.901184 
	C614.535645,698.452698 614.662170,698.004272 614.788757,697.555786 
	C608.376770,693.876831 601.973206,690.183044 595.551270,686.521484 
	C568.643616,671.179565 540.930908,657.213074 515.472961,639.398865 
	C484.644684,617.826782 459.227997,591.476807 442.916168,557.146667 
	C432.406433,535.027771 426.067047,511.665894 422.625671,487.451111 
	C419.976868,468.812805 418.648407,450.110077 418.693878,431.283997 
	C418.771698,399.052063 422.928375,367.324127 430.012573,335.929962 
	C437.403107,303.178284 449.016388,271.832733 461.567444,240.794968 
	C465.686890,230.608002 469.727478,220.388870 473.894592,210.221527 
	C476.408630,204.087524 480.498138,201.899048 485.464813,203.799286 
	C490.673492,205.792145 492.734955,210.509384 490.941376,216.512558 
	C490.370270,218.424072 489.660431,220.299133 488.926331,222.156204 
	C483.113190,236.862183 477.208984,251.532547 471.465271,266.265533 
	C458.374298,299.844849 448.309021,334.308502 442.580078,369.908997 
	C438.611816,394.568420 436.250977,419.456177 437.396332,444.462616 
	C439.158234,482.929352 445.049774,520.556824 462.491180,555.526428 
	C468.391327,567.356201 475.729919,578.253479 484.106567,588.900635 
z"/>
</svg>